<svg width="210" height="45" viewBox="0 0 210 45" fill="none" xmlns="http://www.w3.org/2000/svg">
<path d="M29.088 36V10.08H50.688C51.48 10.08 52.2 10.272 52.848 10.656C53.52 11.04 54.048 11.568 54.432 12.24C54.816 12.888 55.008 13.608 55.008 14.4V31.68C55.008 32.472 54.816 33.204 54.432 33.876C54.048 34.524 53.52 35.04 52.848 35.424C52.2 35.808 51.48 36 50.688 36H29.088ZM33.408 33.084H50.688C51.072 33.084 51.396 32.952 51.66 32.688C51.948 32.4 52.092 32.064 52.092 31.68V14.4C52.092 14.016 51.948 13.692 51.66 13.428C51.396 13.14 51.072 12.996 50.688 12.996H33.408C33.024 12.996 32.688 13.14 32.4 13.428C32.136 13.692 32.004 14.016 32.004 14.4V31.68C32.004 32.064 32.136 32.4 32.4 32.688C32.688 32.952 33.024 33.084 33.408 33.084ZM63.2154 36C62.4234 36 61.6914 35.808 61.0194 35.424C60.3714 35.016 59.8434 34.488 59.4354 33.84C59.0514 33.168 58.8594 32.436 58.8594 31.644V19.476C58.8594 18.684 59.0514 17.964 59.4354 17.316C59.8434 16.644 60.3714 16.116 61.0194 15.732C61.6914 15.324 62.4234 15.12 63.2154 15.12H75.7434C76.5594 15.12 77.2914 15.324 77.9394 15.732C78.6114 16.116 79.1394 16.644 79.5234 17.316C79.9314 17.964 80.1354 18.684 80.1354 19.476V27.036H61.8114V31.644C61.8114 32.028 61.9434 32.364 62.2074 32.652C62.4954 32.916 62.8314 33.048 63.2154 33.048H80.1354V36H63.2154ZM61.8114 24.084H77.1474V19.476C77.1474 19.092 77.0034 18.768 76.7154 18.504C76.4514 18.216 76.1274 18.072 75.7434 18.072H63.2154C62.8314 18.072 62.4954 18.216 62.2074 18.504C61.9434 18.768 61.8114 19.092 61.8114 19.476V24.084ZM93.5221 36L82.0021 15.12H85.4581L95.2501 33.12L105.042 15.12H108.498L96.9421 36H93.5221ZM111.776 36V10.08H135.428V12.996H114.692V21.564H131.36V24.516H114.692V36H111.776ZM141.967 36C141.175 36 140.443 35.808 139.771 35.424C139.123 35.016 138.595 34.488 138.187 33.84C137.803 33.168 137.611 32.436 137.611 31.644V15.12H140.563V31.644C140.563 32.028 140.695 32.364 140.959 32.652C141.247 32.916 141.583 33.048 141.967 33.048H154.495C154.879 33.048 155.215 32.916 155.503 32.652C155.791 32.364 155.935 32.028 155.935 31.644V15.12H158.887V31.644C158.887 32.436 158.683 33.168 158.275 33.84C157.891 34.488 157.363 35.016 156.691 35.424C156.043 35.808 155.311 36 154.495 36H141.967ZM166.962 36C166.17 36 165.438 35.808 164.766 35.424C164.118 35.016 163.59 34.488 163.182 33.84C162.798 33.168 162.606 32.436 162.606 31.644V8.28H165.558V31.644C165.558 32.028 165.69 32.364 165.954 32.652C166.242 32.916 166.578 33.048 166.962 33.048H170.49V36H166.962ZM177.826 36C177.034 36 176.302 35.808 175.63 35.424C174.982 35.016 174.454 34.488 174.046 33.84C173.662 33.168 173.47 32.436 173.47 31.644V8.28H176.422V31.644C176.422 32.028 176.554 32.364 176.818 32.652C177.106 32.916 177.442 33.048 177.826 33.048H181.354V36H177.826Z" fill="#FEFEFE"/>
<path d="M22 11L2 23.1212L22 36" stroke="#1B6DE0" stroke-width="2"/>
<path d="M188 10L208 22.1212L188 35" stroke="#1B6DE0" stroke-width="2"/>
</svg>
